<svg width="1150" height="1150" viewBox="0 0 1150 1150" fill="none" xmlns="http://www.w3.org/2000/svg">
<path d="M0 400C0 259.987 0 189.98 27.2484 136.502C51.2167 89.4619 89.4619 51.2167 136.502 27.2484C189.98 0 259.987 0 400 0H750C890.013 0 960.02 0 1013.5 27.2484C1060.54 51.2167 1098.78 89.4619 1122.75 136.502C1150 189.98 1150 259.987 1150 400V750C1150 890.013 1150 960.02 1122.75 1013.5C1098.78 1060.54 1060.54 1098.78 1013.5 1122.75C960.02 1150 890.013 1150 750 1150H400C259.987 1150 189.98 1150 136.502 1122.75C89.4619 1098.78 51.2167 1060.54 27.2484 1013.5C0 960.02 0 890.013 0 750V400Z" fill="white"/>
<path d="M575 1075C851.142 1075 1075 851.142 1075 575C1075 298.858 851.142 75 575 75C298.858 75 75 298.858 75 575C75 851.142 298.858 1075 575 1075Z" fill="url(#paint0_linear_9_70)"/>
<path fill-rule="evenodd" clip-rule="evenodd" d="M301.328 569.722C447.089 506.217 544.285 464.35 592.917 444.122C731.773 386.367 760.625 376.335 779.431 376.004C783.568 375.931 792.816 376.956 798.806 381.817C803.865 385.921 805.257 391.466 805.923 395.357C806.589 399.249 807.418 408.114 806.759 415.041C799.234 494.102 766.675 685.965 750.111 774.515C743.102 811.984 729.301 824.548 715.941 825.777C686.905 828.449 664.856 806.588 636.733 788.153C592.727 759.306 567.866 741.349 525.15 713.2C475.784 680.669 507.786 662.789 535.919 633.569C543.282 625.921 671.215 509.556 673.691 499C674.001 497.68 674.288 492.759 671.365 490.16C668.441 487.562 664.126 488.45 661.012 489.157C656.599 490.159 586.298 536.625 450.11 628.556C430.155 642.259 412.081 648.935 395.887 648.585C378.034 648.199 343.693 638.491 318.164 630.192C286.851 620.014 261.964 614.632 264.132 597.346C265.26 588.343 277.659 579.135 301.328 569.722Z" fill="white"/>
<defs>
<linearGradient id="paint0_linear_9_70" x1="575" y1="75" x2="575" y2="1067.58" gradientUnits="userSpaceOnUse">
<stop stop-color="#2AABEE"/>
<stop offset="1" stop-color="#229ED9"/>
</linearGradient>
</defs>
</svg>
